<?xml version="1.0" encoding="UTF-8" ?>
<!DOCTYPE svg PUBLIC "-//W3C//DTD SVG 1.1//EN" "http://www.w3.org/Graphics/SVG/1.1/DTD/svg11.dtd">
<svg width="600pt" height="540pt" viewBox="0 0 600 540" version="1.1" xmlns="http://www.w3.org/2000/svg">
<g id="#ffffffff">
</g>
<g id="#08202dff">
<path fill="#08202d" opacity="1.00" d=" M 142.91 21.60 C 165.43 11.63 190.59 9.00 214.96 10.93 C 252.56 14.03 288.32 27.66 321.92 44.17 C 324.77 45.58 327.40 47.40 330.32 48.68 C 334.18 49.55 338.15 49.83 342.07 50.34 C 393.59 56.81 444.39 71.25 490.52 95.31 C 522.05 112.03 551.82 132.53 576.90 158.04 C 583.11 164.23 589.42 170.50 594.05 178.01 C 596.29 181.58 597.46 186.38 595.19 190.22 C 592.65 194.80 588.67 198.33 585.00 201.98 C 571.39 214.22 555.76 224.04 539.46 232.28 C 501.61 249.89 457.89 256.00 417.07 246.16 C 389.21 240.22 363.01 228.78 336.14 219.67 C 312.23 211.56 287.13 207.55 262.01 205.73 C 254.03 205.33 246.04 205.46 238.06 205.78 C 218.77 207.55 199.35 210.38 181.16 217.33 C 165.23 222.61 150.73 231.34 137.01 240.85 C 117.78 255.58 100.83 273.68 88.73 294.75 C 81.70 307.64 75.38 321.02 71.24 335.14 C 77.11 319.52 85.48 304.83 96.14 291.98 C 116.41 268.12 143.12 249.65 172.81 239.63 C 212.40 226.10 255.81 225.06 296.44 234.47 C 294.74 245.78 289.54 256.54 282.30 265.36 C 273.54 275.64 259.73 282.10 246.13 280.06 C 236.66 278.22 227.64 274.25 217.93 273.68 C 193.96 272.09 169.65 276.70 147.81 286.65 C 123.50 298.09 102.57 317.00 89.61 340.61 C 81.78 354.61 75.75 369.84 74.05 385.88 C 71.51 409.52 74.67 433.76 82.75 456.10 C 78.56 455.29 75.41 452.28 72.85 449.06 C 55.17 427.79 45.86 400.64 42.73 373.42 C 40.50 351.19 42.27 328.52 48.43 307.02 C 57.76 272.81 77.64 241.59 104.76 218.74 C 123.50 202.42 145.37 189.69 168.89 181.63 C 207.65 168.77 249.41 164.99 289.85 170.66 C 327.49 175.27 363.93 187.15 398.35 202.82 C 394.13 194.49 392.19 185.23 390.70 176.08 C 390.33 169.46 390.39 162.81 390.58 156.18 C 352.77 137.17 310.95 127.13 269.01 122.79 C 260.45 121.64 251.79 122.02 243.21 121.13 C 252.48 120.82 261.71 119.70 270.99 119.58 C 299.04 118.93 327.24 121.77 354.50 128.48 C 367.54 131.83 380.14 136.60 392.71 141.39 C 394.11 136.41 395.67 131.46 397.69 126.69 C 377.39 118.47 356.27 112.37 334.77 108.25 L 334.35 107.97 C 333.18 107.12 331.83 106.57 330.43 106.24 C 330.46 104.66 330.49 103.08 330.53 101.50 C 330.90 101.09 331.65 100.26 332.02 99.85 C 331.14 99.24 330.26 98.64 329.37 98.06 C 354.48 100.80 379.07 107.08 402.92 115.26 C 406.25 110.21 410.39 105.75 413.76 100.74 C 398.97 96.67 384.29 92.11 369.19 89.31 C 341.25 83.14 312.53 81.10 283.96 81.36 C 258.17 81.97 232.60 86.56 207.83 93.63 C 185.40 100.40 163.73 109.82 143.70 121.99 C 122.59 134.34 104.03 150.61 87.29 168.33 C 54.80 204.90 32.49 250.65 24.94 299.07 C 22.62 312.24 22.08 325.63 21.38 338.97 C 21.12 347.73 21.54 356.48 22.24 365.22 C 16.34 349.13 13.83 332.09 12.31 315.10 C 10.73 292.63 11.93 269.91 16.75 247.87 C 22.47 219.02 35.34 192.00 51.77 167.76 C 62.33 152.61 74.12 138.20 88.02 125.98 C 105.00 110.11 123.94 96.28 144.55 85.49 C 179.56 65.45 219.36 54.84 259.29 50.62 C 244.20 45.41 227.96 42.83 212.05 44.98 C 190.58 48.24 168.97 55.01 151.82 68.78 C 148.81 71.02 146.17 74.48 142.11 74.66 C 136.26 75.12 130.37 75.13 124.52 75.71 C 125.16 73.52 126.63 71.78 128.20 70.20 C 140.16 56.89 155.54 47.03 171.93 40.06 C 181.13 36.31 190.99 34.37 200.87 33.49 C 185.53 29.67 169.14 29.51 153.95 34.04 C 142.80 37.30 132.88 43.60 123.84 50.74 C 119.68 49.00 114.55 50.03 110.97 46.95 C 109.95 45.94 109.57 44.47 108.88 43.24 C 119.05 34.38 130.74 27.34 142.91 21.60 M 443.05 122.06 C 436.28 130.21 430.19 139.40 427.98 149.92 C 425.18 163.08 425.97 177.21 431.45 189.60 C 437.85 204.97 451.68 216.52 467.13 222.12 C 448.76 211.53 437.85 189.96 439.26 168.92 C 439.98 155.26 444.27 141.03 454.27 131.26 C 456.84 128.52 461.42 127.85 462.74 123.96 C 463.98 119.39 459.74 114.20 454.94 114.72 C 449.90 114.68 446.08 118.47 443.05 122.06 M 495.53 155.69 C 490.00 157.29 485.56 162.32 484.79 168.05 C 483.57 176.26 490.51 184.95 498.97 184.90 C 507.36 185.38 514.98 177.38 514.16 169.04 C 513.90 160.12 504.06 153.07 495.53 155.69 Z" />
<path fill="#08202d" opacity="1.00" d=" M 307.05 237.59 C 332.22 244.12 356.07 254.80 381.03 262.05 C 404.06 268.98 427.89 274.06 452.04 273.96 C 472.34 274.22 492.47 270.24 511.92 264.68 C 528.25 259.95 544.23 253.69 558.82 244.90 C 549.59 259.30 536.96 271.15 523.96 282.10 C 489.42 310.71 445.95 329.18 400.93 331.22 C 379.28 331.71 357.46 329.63 336.59 323.66 C 321.47 319.59 306.71 314.20 292.59 307.44 C 285.99 304.21 279.82 300.19 273.34 296.73 C 288.09 292.68 298.75 279.72 303.70 265.72 C 307.11 256.77 307.57 247.05 307.05 237.59 Z" />
<path fill="#08202d" opacity="1.00" d=" M 178.99 299.94 C 187.51 298.10 196.28 297.31 204.99 297.84 C 217.02 299.00 228.07 304.45 238.20 310.75 C 252.54 318.88 266.77 327.33 281.86 334.05 C 302.72 343.18 324.78 349.37 347.15 353.51 C 376.13 358.86 406.05 359.01 435.10 354.06 C 440.56 353.16 445.69 350.88 451.17 350.10 C 446.85 354.47 441.14 357.07 435.71 359.75 C 416.63 368.87 395.93 374.05 375.08 377.05 C 354.79 379.72 334.23 378.65 313.99 376.11 C 288.80 372.63 264.02 365.75 240.87 355.17 C 227.90 349.32 215.60 342.10 203.73 334.27 C 195.23 328.59 187.69 321.63 180.04 314.87 C 174.11 317.12 168.30 319.65 162.64 322.51 C 174.54 336.93 188.89 349.17 204.24 359.77 C 217.48 369.31 232.34 376.21 247.17 382.85 C 271.34 392.63 296.89 399.37 322.92 401.40 C 368.22 406.54 414.94 399.19 456.36 380.08 C 451.72 385.31 445.77 389.13 440.14 393.18 C 421.11 406.67 399.44 416.22 376.89 422.04 C 353.27 428.82 328.46 430.73 303.99 429.58 C 282.93 428.05 262.07 423.77 242.06 417.06 C 200.01 402.92 162.32 375.64 136.72 339.31 C 132.02 342.29 128.00 346.18 123.45 349.39 C 133.11 366.15 145.45 381.21 159.29 394.68 C 182.77 417.05 211.59 433.62 242.52 443.27 C 276.77 453.99 313.34 458.05 348.98 453.02 C 375.09 449.82 400.78 442.79 424.67 431.74 C 450.45 419.78 473.24 402.18 493.14 382.03 C 486.19 395.46 478.66 408.63 470.16 421.15 C 447.89 451.73 419.52 478.32 386.15 496.41 C 355.24 513.58 320.15 522.75 284.92 524.63 C 242.58 526.48 199.72 516.17 163.00 494.98 C 141.82 482.34 122.88 465.86 108.12 446.06 C 101.73 437.16 96.43 427.39 93.35 416.84 C 91.07 409.80 91.47 402.31 91.79 395.03 C 92.96 372.71 102.88 351.24 118.22 335.12 C 134.35 317.65 155.92 305.48 178.99 299.94 Z" />
</g>
<g id="#6298abff">
<path fill="#6298ab" opacity="1.00" d=" M 248.85 100.60 C 271.49 95.66 294.88 94.84 317.94 96.68 C 321.75 97.09 325.65 97.10 329.37 98.06 C 330.26 98.64 331.14 99.24 332.02 99.85 C 331.65 100.26 330.90 101.09 330.53 101.50 C 330.49 103.08 330.46 104.66 330.43 106.24 C 331.83 106.57 333.18 107.12 334.35 107.97 C 332.94 108.10 331.54 108.06 330.15 107.85 C 308.06 103.52 285.49 102.05 263.01 102.40 C 253.81 102.25 244.69 103.48 235.59 104.62 C 239.76 102.55 244.36 101.67 248.85 100.60 Z" />
<path fill="#6298ab" opacity="1.00" d=" M 145.35 147.48 C 175.84 132.40 209.38 123.93 243.21 121.13 C 251.79 122.02 260.45 121.64 269.01 122.79 C 310.95 127.13 352.77 137.17 390.58 156.18 C 390.39 162.81 390.33 169.46 390.70 176.08 C 389.22 175.68 387.75 175.27 386.39 174.55 C 361.22 161.84 333.83 153.85 305.96 149.80 C 274.54 145.06 242.45 144.89 210.97 149.07 C 174.13 154.69 137.49 166.73 107.36 189.19 C 88.06 203.01 70.83 220.12 58.50 240.52 C 57.29 242.52 56.01 244.49 54.52 246.29 C 62.68 225.95 73.30 206.34 88.01 189.95 C 104.32 172.45 124.00 158.21 145.35 147.48 Z" />
</g>
</svg>
