<!DOCTYPE svg PUBLIC "-//W3C//DTD SVG 1.1//EN" "http://www.w3.org/Graphics/SVG/1.1/DTD/svg11.dtd">
<!-- Uploaded to: SVG Repo, www.svgrepo.com, Transformed by: SVG Repo Mixer Tools -->
<svg fill="#437f5a" height="800px" width="800px" version="1.1" id="Capa_1" xmlns="http://www.w3.org/2000/svg" xmlns:xlink="http://www.w3.org/1999/xlink" viewBox="0 0 297 297" xml:space="preserve" stroke="#437f5a">
<g id="SVGRepo_bgCarrier" stroke-width="0"/>
<g id="SVGRepo_tracerCarrier" stroke-linecap="round" stroke-linejoin="round"/>
<g id="SVGRepo_iconCarrier"> <path d="M296.617,280.182L265.83,172.286c-1.222-4.28-5.133-7.231-9.583-7.231h-90.605l9.651-48.255 c19.809-9.612,33.501-29.929,33.501-53.385c0-32.696-26.6-59.298-59.297-59.298c-32.697,0-59.298,26.602-59.298,59.298 c0,23.456,13.691,43.772,33.501,53.385l9.651,48.255H40.753c-4.45,0-8.361,2.951-9.583,7.231L0.383,280.182 c-0.857,3.006-0.256,6.241,1.628,8.737c1.883,2.496,4.828,3.964,7.955,3.964h277.068c3.127,0,6.072-1.468,7.955-3.964 C296.873,286.423,297.475,283.187,296.617,280.182z M110.131,63.415c0-21.706,17.659-39.365,39.366-39.365 c21.706,0,39.365,17.659,39.365,39.365c0,21.706-17.659,39.366-39.365,39.366C127.79,102.781,110.131,85.121,110.131,63.415z M149.497,122.713c1.454,0,2.893-0.071,4.321-0.174l-4.321,21.61l-4.322-21.61C146.603,122.642,148.042,122.713,149.497,122.713z M137.338,184.986l2.387,11.935c0.931,4.659,5.021,8.012,9.772,8.012c4.75,0,8.841-3.352,9.771-8.012l2.387-11.935h87.071 l2.77,9.708l-38.549,32.124L45.048,196.292l3.226-11.306H137.338z M76.247,272.95v-50.727l116.743,21.226l-35.401,29.501H76.247z M39.552,215.553l16.763,3.047v54.351H23.174L39.552,215.553z M188.723,272.95l68.754-57.295l16.349,57.295H188.723z"/> </g>
</svg>